<svg xmlns="http://www.w3.org/2000/svg" xmlns:xlink="http://www.w3.org/1999/xlink" width="1024" zoomAndPan="magnify" viewBox="0 0 768 767.999994" height="1024" preserveAspectRatio="xMidYMid meet" version="1.0"><path fill="#ffffff" d="M 628.179688 45.859375 C 605.097656 48.59375 592.875 50.667969 577.308594 54.492188 C 506.097656 71.976562 431.4375 115.832031 363.648438 179.988281 L 347.539062 195.234375 L 298.546875 189.28125 C 254.429688 183.917969 248.535156 183.539062 239.304688 185.441406 C 218.597656 189.71875 217.046875 191.023438 133.910156 273.917969 C 84.84375 322.84375 56.554688 352.238281 57.601562 353.207031 C 58.519531 354.054688 98.574219 367.816406 146.613281 383.792969 L 233.957031 412.832031 L 294.609375 473.507812 L 355.261719 534.175781 L 414.941406 713.457031 L 493.484375 634.785156 C 566.167969 561.984375 572.429688 555.25 577.414062 544.574219 C 585.132812 528.042969 585.234375 519.609375 578.390625 466.324219 L 572.519531 420.621094 L 590.75 400.9375 C 673.304688 311.824219 717.746094 219.535156 722.457031 127.425781 C 723.777344 101.660156 719.695312 63.128906 714.816406 55.273438 C 711.964844 50.683594 687.863281 46.492188 660.398438 45.808594 C 645.941406 45.449219 631.445312 45.472656 628.179688 45.859375 M 633.792969 109.550781 C 559.472656 114.664062 472.464844 161.390625 397.546875 236.417969 C 371.996094 262.007812 355.285156 282.566406 335.632812 312.574219 C 322.636719 332.421875 295.820312 378.808594 295.820312 381.445312 C 295.820312 382.398438 315.980469 403.324219 340.621094 427.949219 L 385.421875 472.726562 L 409.679688 459.308594 C 449.429688 437.324219 485.574219 412.53125 514.03125 387.734375 C 526.632812 376.753906 561.136719 339.140625 576.570312 319.5625 C 615.050781 270.738281 644.511719 211.816406 654.453125 163.804688 C 657.207031 150.5 661.097656 111.125 659.785156 109.8125 C 658.382812 108.410156 651.394531 108.339844 633.792969 109.550781 M 475.136719 216.160156 C 457.0625 220.726562 441.492188 233.726562 432.703125 251.589844 C 427.769531 261.617188 427.238281 264.183594 427.238281 278.023438 C 427.238281 291.863281 427.769531 294.429688 432.703125 304.449219 C 439.703125 318.671875 449.820312 328.789062 463.695312 335.449219 C 473.519531 340.167969 476.382812 340.742188 490.015625 340.75 C 503.847656 340.757812 506.382812 340.230469 516.476562 335.261719 C 529.949219 328.628906 541.859375 316.484375 548.140625 302.972656 C 554.179688 289.980469 554.402344 269.386719 548.660156 254.707031 C 543.464844 241.417969 530.671875 227.761719 517.222656 221.140625 C 505.453125 215.34375 487.003906 213.164062 475.136719 216.160156 M 211.097656 286.429688 C 190.164062 307.382812 173.386719 324.824219 173.808594 325.199219 C 174.234375 325.570312 189.589844 330.859375 207.9375 336.957031 L 241.300781 348.039062 L 254.996094 323.515625 C 262.53125 310.027344 275.214844 289.03125 283.183594 276.855469 C 291.152344 264.675781 297.316406 254.359375 296.882812 253.925781 C 295.820312 252.863281 262.578125 248.460938 255.109375 248.394531 C 249.589844 248.34375 246.410156 251.097656 211.097656 286.429688 M 498.457031 480.03125 C 482.117188 491.210938 454.632812 507.820312 434.609375 518.621094 L 419.933594 526.535156 L 431.191406 560.402344 C 437.382812 579.027344 442.847656 594.265625 443.335938 594.265625 C 443.824219 594.265625 461.324219 577.152344 482.21875 556.242188 L 520.214844 518.21875 L 518.117188 498.164062 C 515.820312 476.222656 514.765625 470.40625 513.113281 470.617188 C 512.515625 470.691406 505.917969 474.929688 498.457031 480.03125 M 157.804688 493.410156 C 145.867188 496.6875 129.941406 504.902344 121.464844 512.160156 C 97.5625 532.621094 77.265625 574.898438 61.285156 637.507812 C 51.503906 675.820312 43.066406 723.140625 46.011719 723.140625 C 49.804688 723.140625 98.476562 714.089844 115.171875 710.277344 C 182.34375 694.953125 232.980469 672.332031 254.0625 648.230469 C 262.949219 638.066406 271.160156 622.632812 274.652344 609.511719 C 277.910156 597.273438 277.835938 574.445312 274.503906 561.578125 C 266.058594 528.992188 239.058594 501.847656 206.710938 493.417969 C 194.609375 490.269531 169.261719 490.261719 157.804688 493.410156 M 169.421875 556.757812 C 160.21875 560.9375 154.242188 568.40625 145.523438 586.632812 C 137.988281 602.394531 125.136719 639.5 126.683594 641.042969 C 128.191406 642.558594 168.859375 628.578125 183.363281 621.5625 C 210.152344 608.601562 219.847656 591.71875 211.210938 573.070312 C 203.238281 555.847656 186.128906 549.167969 169.421875 556.757812 " fill-opacity="1" fill-rule="evenodd"/></svg>