<svg xmlns="http://www.w3.org/2000/svg" xmlns:xlink="http://www.w3.org/1999/xlink" width="4096" zoomAndPan="magnify" viewBox="0 0 3072 767.999994" height="1024" preserveAspectRatio="xMidYMid meet" version="1.0"><defs><g/></defs><g fill="#222222" fill-opacity="1"><g transform="translate(1430.748687, 513.749995)"><g><path d="M 113.390625 2.609375 C 95.984375 2.609375 80.316406 -0.4375 66.390625 -6.53125 C 52.460938 -12.625 41.519531 -21.265625 33.5625 -32.453125 C 25.613281 -43.640625 21.640625 -56.691406 21.640625 -71.609375 L 67.140625 -71.609375 C 68.128906 -60.421875 72.539062 -51.222656 80.375 -44.015625 C 88.207031 -36.804688 99.210938 -33.203125 113.390625 -33.203125 C 128.066406 -33.203125 139.503906 -36.742188 147.703125 -43.828125 C 155.910156 -50.910156 160.015625 -60.050781 160.015625 -71.25 C 160.015625 -79.945312 157.460938 -87.03125 152.359375 -92.5 C 147.265625 -97.96875 140.925781 -102.191406 133.34375 -105.171875 C 125.757812 -108.160156 115.253906 -111.398438 101.828125 -114.890625 C 84.921875 -119.359375 71.179688 -123.894531 60.609375 -128.5 C 50.046875 -133.101562 41.03125 -140.253906 33.5625 -149.953125 C 26.101562 -159.648438 22.375 -172.578125 22.375 -188.734375 C 22.375 -203.660156 26.101562 -216.71875 33.5625 -227.90625 C 41.03125 -239.09375 51.476562 -247.671875 64.90625 -253.640625 C 78.332031 -259.609375 93.875 -262.59375 111.53125 -262.59375 C 136.644531 -262.59375 157.21875 -256.3125 173.25 -243.75 C 189.289062 -231.195312 198.179688 -213.976562 199.921875 -192.09375 L 152.9375 -192.09375 C 152.1875 -201.539062 147.707031 -209.617188 139.5 -216.328125 C 131.289062 -223.046875 120.472656 -226.40625 107.046875 -226.40625 C 94.867188 -226.40625 84.921875 -223.296875 77.203125 -217.078125 C 69.492188 -210.867188 65.640625 -201.921875 65.640625 -190.234375 C 65.640625 -182.273438 68.0625 -175.742188 72.90625 -170.640625 C 77.757812 -165.546875 83.914062 -161.503906 91.375 -158.515625 C 98.84375 -155.535156 109.039062 -152.304688 121.96875 -148.828125 C 139.125 -144.097656 153.109375 -139.367188 163.921875 -134.640625 C 174.742188 -129.921875 183.945312 -122.648438 191.53125 -112.828125 C 199.113281 -103.003906 202.90625 -89.890625 202.90625 -73.484375 C 202.90625 -60.304688 199.363281 -47.875 192.28125 -36.1875 C 185.195312 -24.5 174.878906 -15.109375 161.328125 -8.015625 C 147.773438 -0.929688 131.796875 2.609375 113.390625 2.609375 Z M 113.390625 2.609375 "/></g></g></g><g fill="#222222" fill-opacity="1"><g transform="translate(1632.916892, 513.749995)"><g><path d="M 216.34375 -107.796875 C 216.34375 -100.085938 215.84375 -93.125 214.84375 -86.90625 L 57.8125 -86.90625 C 59.0625 -70.5 65.15625 -57.320312 76.09375 -47.375 C 87.03125 -37.425781 100.457031 -32.453125 116.375 -32.453125 C 139.25 -32.453125 155.410156 -42.023438 164.859375 -61.171875 L 210.75 -61.171875 C 204.53125 -42.273438 193.273438 -26.796875 176.984375 -14.734375 C 160.703125 -2.671875 140.5 3.359375 116.375 3.359375 C 96.726562 3.359375 79.132812 -1.050781 63.59375 -9.875 C 48.050781 -18.707031 35.863281 -31.144531 27.03125 -47.1875 C 18.207031 -63.226562 13.796875 -81.816406 13.796875 -102.953125 C 13.796875 -124.085938 18.082031 -142.671875 26.65625 -158.703125 C 35.238281 -174.742188 47.300781 -187.113281 62.84375 -195.8125 C 78.382812 -204.519531 96.226562 -208.875 116.375 -208.875 C 135.769531 -208.875 153.050781 -204.644531 168.21875 -196.1875 C 183.382812 -187.738281 195.195312 -175.867188 203.65625 -160.578125 C 212.113281 -145.285156 216.34375 -127.691406 216.34375 -107.796875 Z M 171.953125 -121.21875 C 171.703125 -136.882812 166.101562 -149.441406 155.15625 -158.890625 C 144.21875 -168.347656 130.671875 -173.078125 114.515625 -173.078125 C 99.835938 -173.078125 87.273438 -168.410156 76.828125 -159.078125 C 66.390625 -149.753906 60.175781 -137.132812 58.1875 -121.21875 Z M 171.953125 -121.21875 "/></g></g></g><g fill="#222222" fill-opacity="1"><g transform="translate(1839.934184, 513.749995)"><g><path d="M 131.671875 -208.875 C 147.828125 -208.875 162.304688 -205.515625 175.109375 -198.796875 C 187.921875 -192.085938 197.929688 -182.144531 205.140625 -168.96875 C 212.359375 -155.789062 215.96875 -139.875 215.96875 -121.21875 L 215.96875 0 L 173.8125 0 L 173.8125 -114.890625 C 173.8125 -133.285156 169.210938 -147.394531 160.015625 -157.21875 C 150.816406 -167.039062 138.257812 -171.953125 122.34375 -171.953125 C 106.425781 -171.953125 93.804688 -167.039062 84.484375 -157.21875 C 75.160156 -147.394531 70.5 -133.285156 70.5 -114.890625 L 70.5 0 L 27.96875 0 L 27.96875 -205.515625 L 70.5 -205.515625 L 70.5 -182.03125 C 77.457031 -190.476562 86.34375 -197.0625 97.15625 -201.78125 C 107.976562 -206.507812 119.484375 -208.875 131.671875 -208.875 Z M 131.671875 -208.875 "/></g></g></g><g fill="#222222" fill-opacity="1"><g transform="translate(2058.887621, 513.749995)"><g><path d="M 13.796875 -103.6875 C 13.796875 -124.332031 18.082031 -142.609375 26.65625 -158.515625 C 35.238281 -174.429688 46.925781 -186.800781 61.71875 -195.625 C 76.519531 -204.457031 93 -208.875 111.15625 -208.875 C 124.582031 -208.875 137.820312 -205.953125 150.875 -200.109375 C 163.9375 -194.265625 174.320312 -186.492188 182.03125 -176.796875 L 182.03125 -276.015625 L 224.921875 -276.015625 L 224.921875 0 L 182.03125 0 L 182.03125 -30.953125 C 175.0625 -21.003906 165.421875 -12.796875 153.109375 -6.328125 C 140.804688 0.128906 126.695312 3.359375 110.78125 3.359375 C 92.875 3.359375 76.519531 -1.175781 61.71875 -10.25 C 46.925781 -19.332031 35.238281 -32.015625 26.65625 -48.296875 C 18.082031 -64.585938 13.796875 -83.050781 13.796875 -103.6875 Z M 182.03125 -102.953125 C 182.03125 -117.117188 179.109375 -129.425781 173.265625 -139.875 C 167.421875 -150.320312 159.769531 -158.28125 150.3125 -163.75 C 140.863281 -169.21875 130.671875 -171.953125 119.734375 -171.953125 C 108.796875 -171.953125 98.597656 -169.273438 89.140625 -163.921875 C 79.691406 -158.578125 72.046875 -150.742188 66.203125 -140.421875 C 60.359375 -130.109375 57.4375 -117.863281 57.4375 -103.6875 C 57.4375 -89.519531 60.359375 -77.085938 66.203125 -66.390625 C 72.046875 -55.703125 79.753906 -47.554688 89.328125 -41.953125 C 98.898438 -36.359375 109.035156 -33.5625 119.734375 -33.5625 C 130.671875 -33.5625 140.863281 -36.296875 150.3125 -41.765625 C 159.769531 -47.242188 167.421875 -55.265625 173.265625 -65.828125 C 179.109375 -76.398438 182.03125 -88.773438 182.03125 -102.953125 Z M 182.03125 -102.953125 "/></g></g></g><g fill="#fd3f31" fill-opacity="1"><g transform="translate(2288.666617, 513.749995)"><g><path d="M 228.65625 -208.140625 L 228.65625 0 L 164.859375 0 L 164.859375 -28.34375 C 158.398438 -19.144531 149.632812 -11.75 138.5625 -6.15625 C 127.5 -0.5625 115.253906 2.234375 101.828125 2.234375 C 85.910156 2.234375 71.859375 -1.304688 59.671875 -8.390625 C 47.492188 -15.472656 38.046875 -25.726562 31.328125 -39.15625 C 24.617188 -52.59375 21.265625 -68.382812 21.265625 -86.53125 L 21.265625 -208.140625 L 84.671875 -208.140625 L 84.671875 -95.109375 C 84.671875 -81.191406 88.273438 -70.375 95.484375 -62.65625 C 102.703125 -54.945312 112.398438 -51.09375 124.578125 -51.09375 C 137.015625 -51.09375 146.835938 -54.945312 154.046875 -62.65625 C 161.253906 -70.375 164.859375 -81.191406 164.859375 -95.109375 L 164.859375 -208.140625 Z M 228.65625 -208.140625 "/></g></g></g><path stroke-linecap="butt" transform="matrix(0.750063, 0, 0, 0.750063, 323.186744, -126.803559)" fill="none" stroke-linejoin="miter" d="M 712.95662 210.121466 C 712.95662 210.121466 712.95662 210.439148 712.95662 210.845364 C 712.95662 211.25158 712.623315 211.569261 711.508825 211.569261 " stroke="#ff8080" stroke-width="1" stroke-opacity="0.0078" stroke-miterlimit="4"/><path stroke-linecap="butt" transform="matrix(0.750063, 0, 0, 0.750063, 323.186744, -126.803559)" fill="none" stroke-linejoin="miter" d="M 688.323277 224.609833 C 688.323277 224.609833 688.323277 224.927514 688.323277 225.33373 C 688.323277 225.739946 687.989972 226.057628 686.870274 226.057628 " stroke="#ff0000" stroke-width="1" stroke-opacity="0.0039" stroke-miterlimit="4"/><path stroke-linecap="butt" transform="matrix(0.750063, 0, 0, 0.750063, 323.186744, -126.803559)" fill="none" stroke-linejoin="miter" d="M 860.761887 262.288959 C 860.761887 262.288959 860.428582 262.288959 860.03799 262.288959 C 859.647398 262.288959 859.314092 261.966069 859.314092 260.835956 " stroke="#ff0000" stroke-width="1" stroke-opacity="0.0039" stroke-miterlimit="4"/><path stroke-linecap="butt" transform="matrix(0.750063, 0, 0, 0.750063, 323.186744, -126.803559)" fill="none" stroke-linejoin="miter" d="M 572.395535 291.270899 C 572.395535 291.270899 572.395535 291.58858 572.395535 291.994796 C 572.395535 292.401012 572.06223 292.718694 570.942533 292.718694 " stroke="#ff5555" stroke-width="1" stroke-opacity="0.0118" stroke-miterlimit="4"/><path stroke-linecap="butt" transform="matrix(0.750063, 0, 0, 0.750063, 323.186744, -126.803559)" fill="none" stroke-linejoin="miter" d="M 936.114919 305.759265 C 936.114919 305.759265 935.781614 305.759265 935.391022 305.759265 C 935.00043 305.759265 934.667125 305.441583 934.667125 304.31147 " stroke="#ff0000" stroke-width="1" stroke-opacity="0.0039" stroke-miterlimit="4"/><path stroke-linecap="butt" transform="matrix(0.750063, 0, 0, 0.750063, 323.186744, -126.803559)" fill="none" stroke-linejoin="miter" d="M 492.693911 337.642003 C 492.693911 337.642003 492.693911 337.959685 492.693911 338.3659 C 492.693911 338.772116 492.360605 339.089798 491.246116 339.089798 " stroke="#ff5555" stroke-width="1" stroke-opacity="0.0118" stroke-miterlimit="4"/><path stroke-linecap="butt" transform="matrix(0.750063, 0, 0, 0.750063, 323.186744, -126.803559)" fill="none" stroke-linejoin="miter" d="M 697.015254 610.07224 C 697.015254 610.07224 695.390391 608.765058 693.390559 607.171442 C 691.390727 605.577826 687.161916 600.359514 683.974685 595.578666 C 680.787453 590.797817 676.871116 582.637045 675.2775 577.465604 C 673.642221 572.148343 672.381911 563.945907 672.381911 558.628645 C 672.381911 553.306176 673.642221 545.108948 675.2775 539.786478 C 676.871116 534.615038 680.131258 527.443765 682.52689 523.850317 C 684.917314 520.256869 690.130417 514.397986 694.119664 510.804538 C 698.103704 507.21109 704.623988 502.664597 708.608028 500.664765 C 712.592068 498.664933 719.112352 496.055777 723.1016 494.868377 C 727.085639 493.675769 735.881774 492.691476 742.662453 492.691476 C 749.427509 492.691476 758.239267 493.675769 762.223307 494.868377 C 766.207346 496.055777 774.034812 499.31592 779.612468 502.11256 C 785.195331 504.9092 799.204569 512.721044 810.771303 519.501724 C 822.33283 526.282404 842.534255 538.005378 855.689397 545.582866 C 874.776332 556.571526 881.06747 559.498364 886.848233 560.07644 C 893.587249 560.758674 895.050668 560.248301 907.856881 552.832257 C 915.439576 548.452417 938.901143 534.745235 960.024365 522.397314 C 981.152795 510.054601 1002.338512 497.665017 1007.124567 494.868377 C 1011.905415 492.071737 1025.263665 484.259893 1036.8304 477.479213 C 1048.391927 470.693325 1070.55152 457.652754 1086.097086 448.497273 C 1101.647861 439.336584 1115.323793 431.181019 1116.526817 430.384211 C 1117.72984 429.582195 1119.037022 426.978247 1120.151511 420.23923 " stroke="#c62017" stroke-width="1" stroke-opacity="0.9922" stroke-miterlimit="4"/><path stroke-linecap="butt" transform="matrix(0.750063, 0, 0, 0.750063, 323.186744, -126.803559)" fill="none" stroke-linejoin="miter" d="M 363.7256 421.687025 C 363.7256 421.687025 364.376587 423.962876 365.173395 426.759516 C 366.157687 430.222766 368.230429 432.743388 371.693679 434.727596 C 374.490319 436.321212 387.197582 443.815374 399.951717 451.392863 C 412.700644 458.970351 431.282413 469.724656 441.250324 475.302312 C 451.218235 480.885177 466.534654 489.691728 475.304749 494.868377 C 484.069637 500.039817 499.068374 508.851577 508.635277 514.429234 C 518.196972 520.00689 541.340858 533.370351 560.073656 544.135071 C 578.811662 554.905 601.30456 567.945571 610.069447 573.117011 C 618.834335 578.288452 626.344119 582.538095 626.734711 582.538095 C 627.125303 582.538095 633.978893 586.449224 641.95218 591.230073 C 649.92026 596.010921 656.773849 599.927259 657.164441 599.927259 C 657.555034 599.927259 660.815176 601.88022 664.408623 604.275852 C 668.002071 606.666276 675.17855 610.895087 680.34999 613.691727 C 685.526637 616.488367 692.380227 620.389081 695.567459 622.388913 C 698.754691 624.388745 706.259267 629.268544 712.232723 633.257792 C 718.20097 637.241832 723.752586 640.83528 724.549394 641.225872 C 725.346202 641.616465 725.997189 640.647796 725.997189 636.153382 " stroke="#ee3625" stroke-width="1" stroke-opacity="0.9961" stroke-miterlimit="4"/><path stroke-linecap="butt" transform="matrix(0.750063, 0, 0, 0.750063, 323.186744, -126.803559)" fill="none" stroke-linejoin="miter" d="M 921.626556 681.076691 C 921.626556 681.076691 924.235711 680.092399 927.422943 678.899791 C 930.610174 677.71239 934.838985 676.728098 940.463512 676.728098 " stroke="#ee3625" stroke-width="1" stroke-opacity="0.9961" stroke-miterlimit="4"/><path stroke-linecap="butt" transform="matrix(0.750063, 0, 0, 0.750063, 323.186744, -126.803559)" fill="none" stroke-linejoin="miter" d="M 384.010351 582.538095 C 384.010351 582.538095 384.343656 582.538095 384.734248 582.538095 C 385.12484 582.538095 385.458146 582.8714 385.458146 583.98589 " stroke="#ff8000" stroke-width="1" stroke-opacity="0.0078" stroke-miterlimit="4"/><path stroke-linecap="butt" transform="matrix(0.750063, 0, 0, 0.750063, 323.186744, -126.803559)" fill="none" stroke-linejoin="miter" d="M 720.200802 598.479464 C 720.200802 598.479464 720.200802 598.146158 720.200802 597.750358 C 720.200802 597.359766 721.185094 597.359766 724.549394 598.479464 " stroke="#7f0000" stroke-width="1" stroke-opacity="0.0039" stroke-miterlimit="4"/><path stroke-linecap="butt" transform="matrix(0.750063, 0, 0, 0.750063, 323.186744, -126.803559)" fill="none" stroke-linejoin="miter" d="M 544.861395 679.628896 C 544.861395 679.628896 546.48105 679.962201 548.480882 680.352794 C 550.480713 680.743386 554.714732 682.696347 557.901964 684.696179 C 561.089195 686.696011 587.508846 702.012432 616.589732 718.750609 C 645.675825 735.488786 675.350411 752.445695 682.52689 756.429735 C 689.698161 760.413776 699.160906 764.975892 703.535538 766.574716 C 709.769388 768.845359 715.128312 769.470306 728.168881 769.470306 C 738.792987 769.470306 747.458924 768.689122 752.083535 767.298614 C 756.067575 766.09559 764.874125 762.512558 771.644389 759.325325 C 782.596592 754.169509 784.846402 753.617472 791.929139 754.252835 C 797.251608 754.731961 801.594992 756.179756 804.974916 758.601428 C 808.089237 760.835615 811.437914 765.298782 813.666893 770.194204 C 816.885372 777.28215 817.203054 779.526753 816.56769 790.484166 C 816.046901 799.363628 814.828254 805.029819 812.219098 810.76892 C 810.219267 815.143552 805.667566 822.002351 802.074119 825.986392 C 798.480671 829.970432 791.325024 836.157412 786.132752 839.75086 C 780.945689 843.344308 772.48286 848.229314 767.295796 850.619739 C 762.108733 853.010163 752.661611 855.937 746.287148 857.140024 C 738.777363 858.546156 730.095803 859.051322 721.648597 858.587819 C 713.664894 858.13994 704.113615 856.45779 697.015254 854.244434 C 690.64079 852.244602 681.51135 848.66157 676.730503 846.271146 C 671.944447 843.880721 645.545628 828.548676 618.037527 812.216715 C 590.534633 795.884754 547.496589 770.438975 522.399744 755.705838 C 497.302898 740.951869 474.794376 727.911298 468.060568 724.546997 " stroke="#c71f15" stroke-width="1" stroke-opacity="0.9961" stroke-miterlimit="4"/><path stroke-linecap="butt" transform="matrix(0.750063, 0, 0, 0.750063, 323.186744, -126.803559)" fill="none" stroke-linejoin="miter" d="M 921.626556 681.076691 C 921.626556 681.076691 921.29325 681.727678 920.902658 682.524486 C 920.512066 683.321294 919.204884 683.972281 915.830168 683.972281 " stroke="#6e2319" stroke-width="1" stroke-opacity="0.0431" stroke-miterlimit="4"/><path stroke-linecap="butt" transform="matrix(0.750063, 0, 0, 0.750063, 323.186744, -126.803559)" fill="none" stroke-linejoin="miter" d="M 912.929371 682.524486 C 912.929371 682.524486 912.929371 682.191181 912.929371 681.800589 C 912.929371 681.409996 914.887539 681.076691 921.626556 681.076691 " stroke="#6e2319" stroke-width="1" stroke-opacity="0.0431" stroke-miterlimit="4"/><path stroke-linecap="butt" transform="matrix(0.750063, 0, 0, 0.750063, 323.186744, -126.803559)" fill="none" stroke-linejoin="miter" d="M 741.938556 1015.814193 C 741.938556 1015.814193 745.849685 1015.163206 750.630532 1014.366398 C 756.140485 1013.455016 764.368959 1010.267784 773.092183 1005.67442 C 780.66967 1001.69038 796.308979 992.87862 807.870506 986.108356 C 819.437241 979.343299 843.226905 965.313228 860.761887 954.954723 C 878.296869 944.596218 902.091742 930.566147 913.653268 923.80109 C 925.220003 917.030826 960.097276 896.485677 991.183201 878.153884 C 1022.263918 859.82209 1061.073151 836.995883 1077.40511 827.434187 C 1093.737068 817.87249 1109.720098 808.420159 1112.90733 806.420327 C 1116.094561 804.420495 1119.672385 802.800839 1123.052309 802.800839 " stroke="#c62017" stroke-width="1" stroke-opacity="0.9922" stroke-miterlimit="4"/><path stroke-linecap="butt" transform="matrix(0.750063, 0, 0, 0.750063, 323.186744, -126.803559)" fill="none" stroke-linejoin="miter" d="M 741.938556 1015.814193 C 741.938556 1015.814193 741.938556 1048.087523 741.938556 1087.54775 C 741.938556 1158.30743 741.980219 1159.276099 744.834145 1159.276099 C 746.427761 1159.276099 748.068248 1159.927086 748.45884 1160.723894 C 748.849432 1161.52591 748.849432 1162.510202 747.734943 1163.624692 " stroke="#e32c1c" stroke-width="1" stroke-opacity="0.9961" stroke-miterlimit="4"/><path stroke-linecap="butt" transform="matrix(0.750063, 0, 0, 0.750063, 323.186744, -126.803559)" fill="none" stroke-linejoin="miter" d="M 362.272597 805.69643 C 362.272597 805.69643 362.595487 806.029735 362.996495 806.420327 C 363.40271 806.816127 364.709892 806.493238 365.897292 805.69643 C 367.490908 804.623603 369.417829 805.206887 373.141474 807.87333 C 375.938114 809.873162 382.781288 814.101973 388.358943 817.289206 C 393.936599 820.476438 411.211186 830.579756 426.756753 839.75086 C 442.307527 848.921965 469.362541 864.561276 486.897524 874.529188 C 504.432506 884.497101 523.993359 895.569087 530.367823 899.162535 C 536.747494 902.755983 549.470382 910.250145 558.625861 915.827802 C 567.786548 921.410666 584.420565 931.191094 595.581084 937.565559 C 606.736395 943.940023 626.953443 955.67862 640.499178 963.646701 C 654.05012 971.61999 673.277668 982.702392 683.250787 988.285256 C 693.218698 993.862912 703.639696 1000.049893 706.436336 1002.049725 C 709.232975 1004.049557 712.493118 1005.67442 713.680518 1005.67442 C 714.867918 1005.67442 718.779047 1007.294076 722.372494 1009.293908 C 725.965942 1011.29374 731.824824 1013.56959 741.938556 1015.814193 " stroke="#e32c1c" stroke-width="1" stroke-opacity="0.9961" stroke-miterlimit="4"/><path stroke-linecap="butt" transform="matrix(0.750063, 0, 0, 0.750063, 323.186744, -126.803559)" fill="none" stroke-linejoin="miter" d="M 363.7256 937.565559 C 363.7256 937.565559 364.043281 937.565559 364.449497 937.565559 C 364.855713 937.565559 365.491076 938.867533 366.621189 943.361947 " stroke="#961816" stroke-width="1" stroke-opacity="0.0667" stroke-miterlimit="4"/><path stroke-linecap="butt" transform="matrix(0.750063, 0, 0, 0.750063, 323.186744, -126.803559)" fill="none" stroke-linejoin="miter" d="M 407.195899 973.791682 C 407.195899 973.791682 407.529204 973.791682 407.919797 973.791682 C 408.310389 973.791682 408.643694 974.124987 408.643694 975.239477 " stroke="#ff0000" stroke-width="1" stroke-opacity="0.0039" stroke-miterlimit="4"/><path stroke-linecap="butt" transform="matrix(0.750063, 0, 0, 0.750063, 323.186744, -126.803559)" fill="none" stroke-linejoin="miter" d="M 460.811178 1005.67442 C 460.811178 1005.67442 461.144483 1005.67442 461.535075 1005.67442 C 461.930875 1005.67442 462.26418 1006.007725 462.26418 1007.122215 " stroke="#ff5500" stroke-width="1" stroke-opacity="0.0118" stroke-miterlimit="4"/><path stroke-linecap="butt" transform="matrix(0.750063, 0, 0, 0.750063, 323.186744, -126.803559)" fill="none" stroke-linejoin="miter" d="M 928.870737 1060.737502 C 928.870737 1060.737502 928.870737 1060.404197 928.870737 1060.013605 C 928.870737 1059.623013 929.204043 1059.289707 930.318532 1059.289707 " stroke="#ff0000" stroke-width="1" stroke-opacity="0.0039" stroke-miterlimit="4"/><path stroke-linecap="butt" transform="matrix(0.750063, 0, 0, 0.750063, 323.186744, -126.803559)" fill="none" stroke-linejoin="miter" d="M 570.942533 1070.882483 C 570.942533 1070.882483 571.275838 1070.882483 571.66643 1070.882483 C 572.06223 1070.882483 572.395535 1071.215789 572.395535 1072.330278 " stroke="#ff2a00" stroke-width="1" stroke-opacity="0.0078" stroke-miterlimit="4"/><path stroke-linecap="butt" transform="matrix(0.750063, 0, 0, 0.750063, 323.186744, -126.803559)" fill="none" stroke-linejoin="miter" d="M 605.720855 1091.167237 C 605.720855 1091.167237 606.05416 1091.167237 606.444752 1091.167237 C 606.840552 1091.167237 607.173858 1091.500543 607.173858 1092.62024 " stroke="#aa0000" stroke-width="1" stroke-opacity="0.0039" stroke-miterlimit="4"/><path fill="#ff0000" d="M 894.359375 21.015625 C 894.652344 21.015625 894.902344 21.253906 894.902344 21.558594 C 894.902344 21.863281 894.652344 21.863281 894.359375 21.558594 C 894.066406 21.253906 894.066406 21.015625 894.359375 21.015625 Z M 894.359375 21.015625 " fill-opacity="0.0039" fill-rule="evenodd"/><path fill="#f94835" d="M 967.726562 68.839844 C 967.726562 69.6875 967.976562 69.929688 968.269531 69.929688 C 968.5625 69.929688 968.8125 69.929688 968.8125 69.929688 C 969.652344 69.929688 982.128906 77.027344 997.074219 85.6875 C 1012.019531 94.351562 1024.246094 101.449219 1024.246094 101.449219 C 1024.246094 102.296875 1024.496094 102.535156 1024.789062 102.535156 C 1025.082031 102.535156 1025.332031 102.535156 1025.332031 102.535156 C 1034.59375 107.589844 1047.320312 114.925781 1059.570312 122.101562 C 1071.820312 129.273438 1088.699219 139.054688 1097.070312 143.839844 C 1105.4375 148.621094 1112.285156 152.535156 1112.285156 152.535156 C 1143.449219 171.066406 1153.96875 177.421875 1155.761719 178.621094 C 1157.554688 179.816406 1160 182.5 1161.199219 184.597656 C 1162.394531 186.695312 1163.371094 188.402344 1163.371094 188.402344 C 1162.535156 193.457031 1161.554688 195.410156 1160.652344 196.011719 C 1159.75 196.609375 1149.492188 202.726562 1137.828125 209.597656 C 1126.167969 216.464844 1109.546875 226.246094 1100.875 231.335938 C 1092.199219 236.421875 1082.179688 242.28125 1078.59375 244.378906 C 1075.003906 246.476562 1059.113281 255.769531 1043.265625 265.027344 C 1027.421875 274.289062 1009.824219 284.570312 1004.136719 287.855469 C 994.53125 293.417969 993.433594 293.800781 988.378906 293.289062 C 984.042969 292.855469 979.324219 290.660156 965.007812 282.417969 C 955.140625 276.734375 939.988281 267.941406 931.316406 262.855469 C 922.640625 257.769531 912.132812 251.910156 907.945312 249.8125 C 903.761719 247.714844 897.890625 245.269531 894.902344 244.378906 C 891.914062 243.484375 885.304688 242.746094 880.230469 242.746094 C 875.144531 242.746094 868.546875 243.484375 865.558594 244.378906 C 862.566406 245.269531 857.675781 247.226562 854.6875 248.726562 C 851.699219 250.226562 846.808594 253.636719 843.820312 256.332031 C 840.828125 259.027344 836.917969 263.421875 835.125 266.117188 C 833.328125 268.8125 830.882812 274.191406 829.6875 278.070312 C 828.460938 282.0625 827.515625 288.210938 827.515625 292.203125 C 827.515625 296.191406 828.460938 302.34375 829.6875 306.332031 C 830.882812 310.210938 833.820312 316.332031 836.210938 319.917969 C 838.601562 323.503906 841.773438 327.417969 843.273438 328.613281 C 844.773438 329.808594 845.992188 330.789062 845.992188 330.789062 C 855.253906 340.046875 860.144531 344.449219 862.839844 346.546875 C 865.535156 348.644531 867.730469 350.351562 867.730469 350.351562 C 867.730469 353.722656 867.242188 354.449219 866.644531 354.15625 C 866.046875 353.863281 861.882812 351.167969 857.40625 348.179688 C 852.925781 345.1875 847.296875 341.527344 844.90625 340.027344 C 842.515625 338.527344 837.375 335.601562 833.492188 333.503906 C 829.613281 331.40625 824.230469 328.234375 821.535156 326.441406 C 818.839844 324.644531 816.394531 323.179688 816.101562 323.179688 C 815.808594 323.179688 810.667969 320.242188 804.691406 316.65625 C 798.710938 313.070312 793.570312 310.136719 793.277344 310.136719 C 792.984375 310.136719 787.351562 306.953125 780.777344 303.070312 C 774.203125 299.191406 757.332031 289.410156 743.277344 281.332031 C 729.226562 273.257812 711.867188 263.234375 704.695312 259.050781 C 697.519531 254.867188 686.269531 248.257812 679.695312 244.378906 C 673.117188 240.496094 661.628906 233.890625 654.152344 229.703125 C 646.675781 225.519531 632.738281 217.453125 623.175781 211.769531 C 613.609375 206.085938 604.078125 200.464844 601.980469 199.269531 C 599.382812 197.78125 597.828125 195.890625 597.089844 193.292969 C 596.492188 191.195312 596.003906 189.488281 596.003906 189.488281 C 600.21875 182.75 603.144531 179.574219 605.242188 178.074219 C 607.339844 176.574219 613.195312 172.914062 618.285156 169.925781 C 623.371094 166.933594 628.261719 164 629.152344 163.402344 C 630.042969 162.804688 639.828125 157.175781 650.890625 150.902344 C 661.957031 144.621094 675.640625 136.804688 681.324219 133.511719 C 687.007812 130.21875 691.652344 127.535156 691.652344 127.535156 C 692.488281 127.535156 692.738281 127.296875 692.738281 126.992188 C 692.738281 126.6875 692.738281 126.449219 692.738281 126.449219 C 730.648438 104.546875 743.84375 96.96875 746.539062 95.46875 C 749.234375 93.96875 751.429688 92.753906 751.429688 92.753906 C 752.269531 92.753906 752.519531 92.515625 752.519531 92.210938 C 752.519531 91.90625 752.519531 91.667969 752.519531 91.667969 C 812.320312 57.125 831.644531 46.125 834.035156 44.929688 C 836.425781 43.734375 838.382812 42.753906 838.382812 42.753906 C 839.222656 42.753906 839.472656 42.515625 839.472656 42.210938 C 839.472656 41.90625 839.472656 41.667969 839.472656 41.667969 C 852.101562 34.09375 856.023438 31.886719 856.316406 31.886719 C 856.613281 31.886719 856.863281 31.886719 856.863281 31.886719 C 857.699219 31.886719 857.949219 31.648438 857.949219 31.34375 C 857.949219 31.039062 857.949219 30.800781 857.949219 30.800781 C 866.371094 26.582031 871.511719 25.125 874.796875 24.820312 C 878.078125 24.515625 882.96875 24.515625 885.664062 24.820312 C 888.359375 25.125 893.25 26.582031 896.535156 28.082031 C 899.816406 29.582031 907.652344 33.734375 913.925781 37.320312 C 920.195312 40.90625 934.871094 49.472656 946.53125 56.339844 C 958.195312 63.210938 967.726562 68.839844 967.726562 68.839844 Z M 967.726562 68.839844 " fill-opacity="0.9961" fill-rule="evenodd"/><path fill="#ff8080" d="M 857.949219 30.800781 C 857.949219 30.800781 857.949219 31.039062 857.949219 31.34375 C 857.949219 31.648438 857.699219 31.886719 856.863281 31.886719 C 856.023438 31.039062 855.773438 30.558594 855.773438 30.253906 C 855.773438 29.949219 856.265625 29.949219 856.863281 30.253906 C 857.460938 30.558594 857.949219 30.800781 857.949219 30.800781 Z M 857.949219 30.800781 " fill-opacity="0.0078" fill-rule="evenodd"/><path fill="#ff0000" d="M 839.472656 41.667969 C 839.472656 41.667969 839.472656 41.90625 839.472656 42.210938 C 839.472656 42.515625 839.222656 42.753906 838.382812 42.753906 C 837.546875 41.90625 837.296875 41.429688 837.296875 41.125 C 837.296875 40.820312 837.785156 40.820312 838.382812 41.125 C 838.980469 41.429688 839.472656 41.667969 839.472656 41.667969 Z M 839.472656 41.667969 " fill-opacity="0.0039" fill-rule="evenodd"/><path fill="#ff0000" d="M 935.664062 47.101562 C 935.957031 47.101562 936.207031 47.339844 936.207031 47.644531 C 936.207031 47.949219 935.957031 47.949219 935.664062 47.644531 C 935.371094 47.339844 935.371094 47.101562 935.664062 47.101562 Z M 935.664062 47.101562 " fill-opacity="0.0039" fill-rule="evenodd"/><path fill="#ff0000" d="M 801.972656 55.796875 C 802.265625 55.796875 802.515625 56.035156 802.515625 56.339844 C 802.515625 56.644531 802.265625 56.644531 801.972656 56.339844 C 801.679688 56.035156 801.679688 55.796875 801.972656 55.796875 Z M 801.972656 55.796875 " fill-opacity="0.0039" fill-rule="evenodd"/><path fill="#ff0000" d="M 957.402344 55.796875 C 957.695312 55.796875 957.945312 56.035156 957.945312 56.339844 C 957.945312 56.644531 957.695312 56.644531 957.402344 56.339844 C 957.109375 56.035156 957.109375 55.796875 957.402344 55.796875 Z M 957.402344 55.796875 " fill-opacity="0.0039" fill-rule="evenodd"/><path fill="#ff0000" d="M 968.8125 69.929688 C 968.8125 69.929688 968.5625 69.929688 968.269531 69.929688 C 967.976562 69.929688 967.726562 69.6875 967.726562 68.839844 C 968.5625 67.992188 969.0625 67.753906 969.355469 67.753906 C 969.652344 67.753906 969.652344 68.242188 969.355469 68.839844 C 969.0625 69.4375 968.8125 69.929688 968.8125 69.929688 Z M 968.8125 69.929688 " fill-opacity="0.0039" fill-rule="evenodd"/><path fill="#ff5555" d="M 752.519531 91.667969 C 752.519531 91.667969 752.519531 91.90625 752.519531 92.210938 C 752.519531 92.515625 752.269531 92.753906 751.429688 92.753906 C 750.59375 91.90625 750.34375 91.425781 750.34375 91.121094 C 750.34375 90.816406 750.832031 90.816406 751.429688 91.121094 C 752.027344 91.425781 752.519531 91.667969 752.519531 91.667969 Z M 752.519531 91.667969 " fill-opacity="0.0118" fill-rule="evenodd"/><path fill="#ff0000" d="M 1025.332031 102.535156 C 1025.332031 102.535156 1025.082031 102.535156 1024.789062 102.535156 C 1024.496094 102.535156 1024.246094 102.296875 1024.246094 101.449219 C 1025.082031 100.601562 1025.582031 100.363281 1025.875 100.363281 C 1026.171875 100.363281 1026.171875 100.851562 1025.875 101.449219 C 1025.582031 102.046875 1025.332031 102.535156 1025.332031 102.535156 Z M 1025.332031 102.535156 " fill-opacity="0.0039" fill-rule="evenodd"/><path fill="#ff5555" d="M 692.738281 126.449219 C 692.738281 126.449219 692.738281 126.6875 692.738281 126.992188 C 692.738281 127.296875 692.488281 127.535156 691.652344 127.535156 C 690.8125 126.6875 690.5625 126.207031 690.5625 125.902344 C 690.5625 125.597656 691.054688 125.597656 691.652344 125.902344 C 692.25 126.207031 692.738281 126.449219 692.738281 126.449219 Z M 692.738281 126.449219 " fill-opacity="0.0118" fill-rule="evenodd"/><path fill="#ff8080" d="M 1112.285156 152.535156 C 1112.285156 151.695312 1112.535156 151.445312 1112.828125 151.445312 C 1113.125 151.445312 1113.125 151.695312 1112.828125 151.988281 C 1112.535156 152.285156 1112.285156 152.535156 1112.285156 152.535156 Z M 1112.285156 152.535156 " fill-opacity="0.0078" fill-rule="evenodd"/><path fill="#c62017" d="M 1163.371094 188.402344 C 1165.144531 195.488281 1165.339844 214.226562 1165 243.289062 C 1164.492188 286.703125 1164.328125 289.746094 1162.285156 293.832031 C 1161.089844 296.222656 1158.894531 299.398438 1157.394531 300.898438 C 1155.894531 302.398438 1147.339844 308.015625 1138.371094 313.398438 C 1129.40625 318.777344 1102.753906 334.667969 1079.136719 348.722656 C 1055.515625 362.773438 1034.484375 375.242188 1032.398438 376.4375 C 1030.3125 377.632812 1028.59375 379.101562 1028.59375 379.699219 C 1028.59375 380.296875 1028.59375 380.785156 1028.59375 380.785156 C 1024.375 380.785156 1021.203125 381.523438 1018.8125 382.414062 C 1016.421875 383.308594 1014.464844 384.046875 1014.464844 384.046875 C 1009.410156 384.046875 1007.941406 384.296875 1007.941406 384.589844 C 1007.941406 384.882812 1007.941406 385.132812 1007.941406 385.132812 C 1000.355469 384.296875 995.464844 383.308594 992.183594 382.414062 C 988.898438 381.523438 982.53125 378.828125 978.050781 376.4375 C 973.574219 374.046875 964.28125 368.667969 957.402344 364.480469 C 950.519531 360.296875 944.652344 356.875 944.359375 356.875 C 944.066406 356.875 933.78125 350.765625 921.53125 343.285156 C 909.285156 335.808594 896.078125 328.234375 892.1875 326.441406 C 888.296875 324.644531 882.425781 322.691406 879.144531 322.09375 C 875.859375 321.492188 871.699219 321.253906 869.90625 321.546875 C 868.109375 321.84375 866.644531 322.09375 866.644531 322.09375 C 864.121094 321.253906 863.382812 321.253906 863.382812 321.546875 C 863.382812 321.84375 863.382812 322.09375 863.382812 322.09375 C 859.164062 322.929688 855.015625 324.15625 851.425781 325.351562 C 846.644531 326.949219 845.046875 327.960938 845.449219 329.15625 C 845.742188 330.046875 845.992188 330.789062 845.992188 330.789062 C 845.992188 330.789062 844.773438 329.808594 843.273438 328.613281 C 841.773438 327.417969 838.601562 323.503906 836.210938 319.917969 C 833.820312 316.332031 830.882812 310.210938 829.6875 306.332031 C 828.460938 302.34375 827.515625 296.191406 827.515625 292.203125 C 827.515625 288.210938 828.460938 282.0625 829.6875 278.070312 C 830.882812 274.191406 833.328125 268.8125 835.125 266.117188 C 836.917969 263.421875 840.828125 259.027344 843.820312 256.332031 C 846.808594 253.636719 851.699219 250.226562 854.6875 248.726562 C 857.675781 247.226562 862.566406 245.269531 865.558594 244.378906 C 868.546875 243.484375 875.144531 242.746094 880.230469 242.746094 C 885.304688 242.746094 891.914062 243.484375 894.902344 244.378906 C 897.890625 245.269531 903.761719 247.714844 907.945312 249.8125 C 912.132812 251.910156 922.640625 257.769531 931.316406 262.855469 C 939.988281 267.941406 955.140625 276.734375 965.007812 282.417969 C 979.324219 290.660156 984.042969 292.855469 988.378906 293.289062 C 993.433594 293.800781 994.53125 293.417969 1004.136719 287.855469 C 1009.824219 284.570312 1027.421875 274.289062 1043.265625 265.027344 C 1059.113281 255.769531 1075.003906 246.476562 1078.59375 244.378906 C 1082.179688 242.28125 1092.199219 236.421875 1100.875 231.335938 C 1109.546875 226.246094 1126.167969 216.464844 1137.828125 209.597656 C 1149.492188 202.726562 1159.75 196.609375 1160.652344 196.011719 C 1161.554688 195.410156 1162.535156 193.457031 1163.371094 188.402344 Z M 1163.371094 188.402344 " fill-opacity="0.9922" fill-rule="evenodd"/><path fill="#ee3625" d="M 596.003906 189.488281 C 596.003906 189.488281 596.492188 191.195312 597.089844 193.292969 C 597.828125 195.890625 599.382812 197.78125 601.980469 199.269531 C 604.078125 200.464844 613.609375 206.085938 623.175781 211.769531 C 632.738281 217.453125 646.675781 225.519531 654.152344 229.703125 C 661.628906 233.890625 673.117188 240.496094 679.695312 244.378906 C 686.269531 248.257812 697.519531 254.867188 704.695312 259.050781 C 711.867188 263.234375 729.226562 273.257812 743.277344 281.332031 C 757.332031 289.410156 774.203125 299.191406 780.777344 303.070312 C 787.351562 306.953125 792.984375 310.136719 793.277344 310.136719 C 793.570312 310.136719 798.710938 313.070312 804.691406 316.65625 C 810.667969 320.242188 815.808594 323.179688 816.101562 323.179688 C 816.394531 323.179688 818.839844 324.644531 821.535156 326.441406 C 824.230469 328.234375 829.613281 331.40625 833.492188 333.503906 C 837.375 335.601562 842.515625 338.527344 844.90625 340.027344 C 847.296875 341.527344 852.925781 345.1875 857.40625 348.179688 C 861.882812 351.167969 866.046875 353.863281 866.644531 354.15625 C 867.242188 354.449219 867.730469 353.722656 867.730469 350.351562 C 876.152344 355.40625 889.597656 363.46875 903.054688 371.546875 C 916.511719 379.621094 932.652344 388.664062 938.921875 391.65625 C 945.195312 394.644531 953.761719 397.828125 957.945312 398.71875 C 962.410156 399.675781 968.25 400.121094 972.074219 399.804688 C 975.660156 399.511719 981.53125 398.523438 985.117188 397.632812 C 988.703125 396.742188 995.800781 393.804688 1000.878906 391.109375 C 1005.953125 388.414062 1010.117188 386.21875 1010.117188 386.21875 C 1012.648438 386.21875 1013.628906 385.730469 1013.921875 385.132812 C 1014.214844 384.535156 1014.464844 384.046875 1014.464844 384.046875 C 1014.464844 384.046875 1016.421875 383.308594 1018.8125 382.414062 C 1021.203125 381.523438 1024.375 380.785156 1028.59375 380.785156 C 1031.964844 382.46875 1033.191406 382.960938 1033.484375 382.960938 C 1033.777344 382.960938 1034.027344 382.960938 1034.027344 382.960938 C 1061.832031 399.804688 1079.679688 410.328125 1091.636719 417.195312 C 1103.589844 424.066406 1116.796875 431.890625 1120.980469 434.585938 C 1125.167969 437.28125 1129.316406 439.230469 1130.21875 438.933594 C 1131.121094 438.640625 1131.851562 438.878906 1131.851562 439.480469 C 1131.851562 440.078125 1137.230469 443.988281 1143.808594 448.175781 C 1151.457031 453.042969 1157.132812 457.542969 1159.566406 460.671875 C 1161.652344 463.367188 1163.859375 467.761719 1164.457031 470.457031 C 1165.054688 473.152344 1165.546875 475.347656 1165.546875 475.347656 C 1163.011719 475.347656 1160.328125 476.5625 1157.9375 478.0625 C 1155.546875 479.5625 1143.558594 486.652344 1131.308594 493.824219 C 1119.058594 500.996094 1089.949219 518.117188 1066.636719 531.867188 C 1043.320312 545.617188 1017.160156 561.027344 1008.484375 566.105469 C 999.8125 571.179688 981.964844 581.703125 968.8125 589.472656 C 955.660156 597.246094 937.816406 607.765625 929.140625 612.839844 C 920.46875 617.917969 908.738281 624.527344 903.054688 627.515625 C 896.511719 630.960938 890.339844 633.351562 886.207031 634.035156 C 882.621094 634.632812 879.6875 635.125 879.6875 635.125 C 872.101562 633.4375 867.707031 631.730469 865.011719 630.230469 C 862.316406 628.730469 859.382812 627.515625 858.492188 627.515625 C 857.601562 627.515625 855.15625 626.296875 853.058594 624.796875 C 850.960938 623.296875 843.144531 618.65625 835.667969 614.472656 C 828.1875 610.289062 813.765625 601.972656 803.601562 595.996094 C 793.441406 590.015625 778.277344 581.210938 769.910156 576.429688 C 761.539062 571.648438 749.0625 564.3125 742.191406 560.125 C 735.324219 555.941406 725.78125 550.320312 720.996094 547.625 C 716.214844 544.929688 701.542969 536.625 688.390625 529.148438 C 675.238281 521.671875 654.945312 509.941406 643.28125 503.0625 C 631.621094 496.183594 618.664062 488.605469 614.480469 486.214844 C 610.296875 483.824219 605.164062 480.652344 603.066406 479.152344 C 600.273438 477.152344 598.828125 476.714844 597.632812 477.519531 C 596.742188 478.117188 595.761719 478.359375 595.457031 478.0625 C 595.15625 477.769531 594.914062 477.519531 594.914062 477.519531 C 594.914062 471.421875 596.207031 467.761719 598.175781 464.476562 C 600.351562 460.859375 603.425781 457.769531 607.414062 455.238281 C 610.695312 453.152344 625.621094 444.347656 640.566406 435.675781 C 655.511719 427 669.207031 419.175781 671 418.285156 C 672.792969 417.390625 674.261719 416.652344 674.261719 416.652344 C 679.3125 419.175781 696.195312 428.957031 715.019531 440.023438 C 733.84375 451.074219 766.125 470.164062 786.753906 482.410156 C 807.386719 494.660156 827.1875 506.160156 830.777344 507.953125 C 834.363281 509.746094 841.210938 512.433594 845.992188 513.933594 C 851.316406 515.59375 858.480469 516.855469 864.46875 517.191406 C 870.804688 517.539062 877.316406 517.160156 882.949219 516.105469 C 887.730469 515.203125 894.816406 513.007812 898.707031 511.214844 C 902.597656 509.421875 908.945312 505.757812 912.835938 503.0625 C 916.730469 500.367188 922.097656 495.726562 924.792969 492.738281 C 927.488281 489.75 930.902344 484.605469 932.402344 481.324219 C 934.359375 477.019531 935.273438 472.769531 935.664062 466.109375 C 936.140625 457.890625 935.902344 456.207031 933.488281 450.890625 C 931.816406 447.21875 929.304688 443.871094 926.96875 442.195312 C 924.433594 440.378906 921.175781 439.292969 917.183594 438.933594 C 911.871094 438.457031 910.183594 438.871094 901.96875 442.738281 C 896.894531 445.128906 890.285156 447.816406 887.296875 448.71875 C 883.828125 449.761719 877.328125 450.347656 869.359375 450.347656 C 859.578125 450.347656 855.558594 449.878906 850.882812 448.175781 C 847.601562 446.976562 840.503906 443.554688 835.125 440.566406 C 829.742188 437.578125 807.484375 424.859375 785.667969 412.304688 C 763.855469 399.75 744.039062 388.261719 741.648438 386.761719 C 739.257812 385.261719 736.082031 383.796875 734.582031 383.503906 C 733.082031 383.210938 731.867188 382.960938 731.867188 382.960938 C 729.34375 380.4375 723.964844 377.003906 718.28125 373.71875 C 712.59375 370.4375 699.640625 362.851562 689.476562 356.875 C 679.3125 350.894531 661.46875 340.375 649.804688 333.503906 C 638.140625 326.636719 624.9375 318.808594 620.457031 316.113281 C 615.980469 313.417969 612.304688 311.222656 612.304688 311.222656 C 612.304688 310.386719 612.054688 310.136719 611.761719 310.136719 C 611.46875 310.136719 611.21875 310.136719 611.21875 310.136719 C 603.632812 305.082031 600.21875 301.65625 598.71875 299.265625 C 596.851562 296.277344 595.664062 292.203125 594.914062 286.222656 C 594.261719 281.039062 594.046875 260.625 594.371094 235.683594 C 594.675781 212.660156 595.15625 192.859375 595.457031 191.664062 C 595.761719 190.464844 596.003906 189.488281 596.003906 189.488281 Z M 596.003906 189.488281 " fill-opacity="0.9961" fill-rule="evenodd"/><path fill="#ff0000" d="M 1166.089844 289.484375 C 1166.382812 289.484375 1166.632812 289.734375 1166.632812 290.027344 C 1166.632812 290.320312 1166.382812 290.320312 1166.089844 290.027344 C 1165.796875 289.734375 1165.796875 289.484375 1166.089844 289.484375 Z M 1166.089844 289.484375 " fill-opacity="0.0039" fill-rule="evenodd"/><path fill="#ff8000" d="M 611.21875 310.136719 C 611.21875 310.136719 611.46875 310.136719 611.761719 310.136719 C 612.054688 310.136719 612.304688 310.386719 612.304688 311.222656 C 611.46875 312.058594 610.96875 312.308594 610.675781 312.308594 C 610.382812 312.308594 610.382812 311.820312 610.675781 311.222656 C 610.96875 310.625 611.21875 310.136719 611.21875 310.136719 Z M 611.21875 310.136719 " fill-opacity="0.0078" fill-rule="evenodd"/><path fill="#7f0000" d="M 866.644531 322.09375 C 867.480469 322.929688 867.730469 323.429688 867.730469 323.722656 C 867.730469 324.015625 866.753906 324.265625 865.558594 324.265625 C 864.359375 324.265625 863.382812 323.777344 863.382812 323.179688 C 863.382812 322.582031 863.382812 322.09375 863.382812 322.09375 C 863.382812 322.09375 863.382812 321.84375 863.382812 321.546875 C 863.382812 321.253906 864.121094 321.253906 866.644531 322.09375 Z M 866.644531 322.09375 " fill-opacity="0.0039" fill-rule="evenodd"/><path fill="#ff0000" d="M 1131.308594 322.09375 C 1131.601562 322.09375 1131.851562 322.34375 1131.851562 322.636719 C 1131.851562 322.929688 1131.601562 322.929688 1131.308594 322.636719 C 1131.015625 322.34375 1131.015625 322.09375 1131.308594 322.09375 Z M 1131.308594 322.09375 " fill-opacity="0.0078" fill-rule="evenodd"/><path fill="#ff0000" d="M 875.339844 323.179688 C 875.9375 323.179688 876.425781 323.429688 876.425781 323.722656 C 876.425781 324.015625 875.9375 324.015625 875.339844 323.722656 C 874.609375 323.363281 874.609375 323.179688 875.339844 323.179688 Z M 875.339844 323.179688 " fill-opacity="0.0078" fill-rule="evenodd"/><path fill="#aa5500" d="M 860.664062 324.265625 C 861.558594 324.265625 862.296875 324.515625 862.296875 324.808594 C 862.296875 325.101562 861.558594 325.101562 860.664062 324.808594 C 859.21875 324.332031 859.21875 324.265625 860.664062 324.265625 Z M 860.664062 324.265625 " fill-opacity="0.0118" fill-rule="evenodd"/><path fill="#ff0000" d="M 1122.613281 324.265625 C 1122.90625 324.265625 1123.15625 324.515625 1123.15625 324.808594 C 1123.15625 325.101562 1122.90625 325.101562 1122.613281 324.808594 C 1122.320312 324.515625 1122.320312 324.265625 1122.613281 324.265625 Z M 1122.613281 324.265625 " fill-opacity="0.0078" fill-rule="evenodd"/><path fill="#ff0000" d="M 924.792969 347.089844 C 925.085938 347.089844 925.335938 347.339844 925.335938 347.632812 C 925.335938 347.929688 925.085938 347.929688 924.792969 347.632812 C 924.5 347.339844 924.5 347.089844 924.792969 347.089844 Z M 924.792969 347.089844 " fill-opacity="0.0039" fill-rule="evenodd"/><path fill="#ff0000" d="M 1079.136719 350.351562 C 1079.429688 350.351562 1079.679688 350.601562 1079.679688 350.894531 C 1079.679688 351.1875 1079.429688 351.1875 1079.136719 350.894531 C 1078.84375 350.601562 1078.84375 350.351562 1079.136719 350.351562 Z M 1079.136719 350.351562 " fill-opacity="0.0078" fill-rule="evenodd"/><path fill="#ff0000" d="M 1068.265625 356.875 C 1068.558594 356.875 1068.808594 357.125 1068.808594 357.417969 C 1068.808594 357.710938 1068.558594 357.710938 1068.265625 357.417969 C 1067.972656 357.125 1067.972656 356.875 1068.265625 356.875 Z M 1068.265625 356.875 " fill-opacity="0.0039" fill-rule="evenodd"/><path fill="#ff0000" d="M 1066.09375 357.960938 C 1066.386719 357.960938 1066.636719 358.210938 1066.636719 358.503906 C 1066.636719 358.796875 1066.386719 358.796875 1066.09375 358.503906 C 1065.800781 358.210938 1065.800781 357.960938 1066.09375 357.960938 Z M 1066.09375 357.960938 " fill-opacity="0.0039" fill-rule="evenodd"/><path fill="#ff0000" d="M 895.445312 362.308594 C 895.742188 362.308594 895.992188 362.558594 895.992188 362.851562 C 895.992188 363.144531 895.742188 363.144531 895.445312 362.851562 C 895.152344 362.558594 895.152344 362.308594 895.445312 362.308594 Z M 895.445312 362.308594 " fill-opacity="0.0039" fill-rule="evenodd"/><path fill="#ff0000" d="M 725.886719 379.699219 C 726.183594 379.699219 726.433594 379.949219 726.433594 380.242188 C 726.433594 380.535156 726.183594 380.535156 725.886719 380.242188 C 725.59375 379.949219 725.59375 379.699219 725.886719 379.699219 Z M 725.886719 379.699219 " fill-opacity="0.0078" fill-rule="evenodd"/><path fill="#ff0000" d="M 1034.027344 382.960938 C 1034.027344 382.121094 1034.277344 381.871094 1034.570312 381.871094 C 1034.867188 381.871094 1034.867188 382.121094 1034.570312 382.414062 C 1034.277344 382.710938 1034.027344 382.960938 1034.027344 382.960938 Z M 1034.027344 382.960938 " fill-opacity="0.0039" fill-rule="evenodd"/><path fill="#c71f15" d="M 731.867188 382.960938 C 731.867188 382.960938 733.082031 383.210938 734.582031 383.503906 C 736.082031 383.796875 739.257812 385.261719 741.648438 386.761719 C 744.039062 388.261719 763.855469 399.75 785.667969 412.304688 C 807.484375 424.859375 829.742188 437.578125 835.125 440.566406 C 840.503906 443.554688 847.601562 446.976562 850.882812 448.175781 C 855.558594 449.878906 859.578125 450.347656 869.359375 450.347656 C 877.328125 450.347656 883.828125 449.761719 887.296875 448.71875 C 890.285156 447.816406 896.894531 445.128906 901.96875 442.738281 C 910.183594 438.871094 911.871094 438.457031 917.183594 438.933594 C 921.175781 439.292969 924.433594 440.378906 926.96875 442.195312 C 929.304688 443.871094 931.816406 447.21875 933.488281 450.890625 C 935.902344 456.207031 936.140625 457.890625 935.664062 466.109375 C 935.273438 472.769531 934.359375 477.019531 932.402344 481.324219 C 930.902344 484.605469 927.488281 489.75 924.792969 492.738281 C 922.097656 495.726562 916.730469 500.367188 912.835938 503.0625 C 908.945312 505.757812 902.597656 509.421875 898.707031 511.214844 C 894.816406 513.007812 887.730469 515.203125 882.949219 516.105469 C 877.316406 517.160156 870.804688 517.539062 864.46875 517.191406 C 858.480469 516.855469 851.316406 515.59375 845.992188 513.933594 C 841.210938 512.433594 834.363281 509.746094 830.777344 507.953125 C 827.1875 506.160156 807.386719 494.660156 786.753906 482.410156 C 766.125 470.164062 733.84375 451.074219 715.019531 440.023438 C 696.195312 428.957031 679.3125 419.175781 674.261719 416.652344 C 697.007812 403.175781 709.964844 395.589844 717.738281 391.109375 C 725.507812 386.632812 731.867188 382.960938 731.867188 382.960938 Z M 731.867188 382.960938 " fill-opacity="0.9961" fill-rule="evenodd"/><path fill="#6e2319" d="M 1014.464844 384.046875 C 1014.464844 384.046875 1014.214844 384.535156 1013.921875 385.132812 C 1013.628906 385.730469 1012.648438 386.21875 1010.117188 386.21875 C 1010.117188 385.382812 1009.628906 385.132812 1009.03125 385.132812 C 1008.433594 385.132812 1007.941406 385.132812 1007.941406 385.132812 C 1007.941406 385.132812 1007.941406 384.882812 1007.941406 384.589844 C 1007.941406 384.296875 1009.410156 384.046875 1014.464844 384.046875 Z M 1014.464844 384.046875 " fill-opacity="0.0431" fill-rule="evenodd"/><path fill="#ff0000" d="M 700.890625 396.003906 C 701.183594 396.003906 701.433594 396.253906 701.433594 396.546875 C 701.433594 396.839844 701.183594 396.839844 700.890625 396.546875 C 700.597656 396.253906 700.597656 396.003906 700.890625 396.003906 Z M 700.890625 396.003906 " fill-opacity="0.0039" fill-rule="evenodd"/><path fill="#ff0000" d="M 611.761719 447.085938 C 612.054688 447.085938 612.304688 447.335938 612.304688 447.628906 C 612.304688 447.925781 612.054688 447.925781 611.761719 447.628906 C 611.46875 447.335938 611.46875 447.085938 611.761719 447.085938 Z M 611.761719 447.085938 " fill-opacity="0.0039" fill-rule="evenodd"/><path fill="#c62017" d="M 1165.546875 475.347656 C 1165.546875 546.179688 1165.078125 567.898438 1164.457031 570.996094 C 1163.859375 573.984375 1162.152344 578.386719 1160.652344 580.777344 C 1159.152344 583.167969 1155.742188 586.59375 1153.046875 588.386719 C 1150.351562 590.179688 1119.535156 608.765625 1084.570312 629.6875 C 1049.605469 650.613281 1020.984375 667.730469 1020.984375 667.730469 C 1020.148438 667.730469 1019.898438 667.980469 1019.898438 668.273438 C 1019.898438 668.566406 1019.898438 668.816406 1019.898438 668.816406 C 997.996094 681.449219 991.148438 685.847656 990.550781 686.75 C 989.953125 687.652344 988.976562 688.382812 988.378906 688.382812 C 987.78125 688.382812 979.703125 692.785156 970.445312 698.164062 C 961.183594 703.542969 952.867188 708.433594 951.964844 709.035156 C 951.0625 709.632812 938.109375 717.457031 923.164062 726.425781 C 905.847656 736.816406 893.816406 743.316406 890.011719 744.359375 C 886.730469 745.261719 884.035156 745.988281 884.035156 745.988281 C 884.871094 745.152344 884.871094 744.414062 884.578125 743.816406 C 884.285156 743.214844 883.054688 742.726562 881.859375 742.726562 C 879.71875 742.726562 879.6875 742 879.6875 688.925781 C 879.6875 659.328125 879.6875 635.125 879.6875 635.125 C 879.6875 635.125 882.621094 634.632812 886.207031 634.035156 C 890.339844 633.351562 896.511719 630.960938 903.054688 627.515625 C 908.738281 624.527344 920.46875 617.917969 929.140625 612.839844 C 937.816406 607.765625 955.660156 597.246094 968.8125 589.472656 C 981.964844 581.703125 999.8125 571.179688 1008.484375 566.105469 C 1017.160156 561.027344 1043.320312 545.617188 1066.636719 531.867188 C 1089.949219 518.117188 1119.058594 500.996094 1131.308594 493.824219 C 1143.558594 486.652344 1155.546875 479.5625 1157.9375 478.0625 C 1160.328125 476.5625 1163.011719 475.347656 1165.546875 475.347656 Z M 1165.546875 475.347656 " fill-opacity="0.9922" fill-rule="evenodd"/><path fill="#e32c1c" d="M 879.6875 635.125 C 879.6875 635.125 879.6875 659.328125 879.6875 688.925781 C 879.6875 742 879.71875 742.726562 881.859375 742.726562 C 883.054688 742.726562 884.285156 743.214844 884.578125 743.816406 C 884.871094 744.414062 884.871094 745.152344 884.035156 745.988281 C 871.773438 745.042969 867.457031 743.75 860.664062 740.554688 C 855.578125 738.164062 848.730469 734.488281 845.449219 732.402344 C 842.167969 730.316406 837.273438 727.378906 834.578125 725.878906 C 831.882812 724.378906 825.777344 720.71875 820.992188 717.730469 C 816.210938 714.738281 810.589844 711.316406 808.492188 710.121094 C 806.394531 708.925781 798.820312 704.523438 791.648438 700.339844 C 784.472656 696.152344 778.605469 692.730469 778.605469 692.730469 C 778.605469 691.890625 778.355469 691.644531 778.058594 691.644531 C 777.765625 691.644531 777.515625 691.644531 777.515625 691.644531 C 771.613281 688.273438 765.996094 685.097656 761.214844 682.402344 C 756.429688 679.707031 752.519531 677.511719 752.519531 677.511719 C 752.519531 676.675781 752.269531 676.425781 751.972656 676.425781 C 751.679688 676.425781 751.429688 676.425781 751.429688 676.425781 C 731.214844 664.632812 723.878906 660.230469 722.085938 659.035156 C 720.289062 657.839844 707.824219 650.503906 694.367188 642.730469 C 680.910156 634.960938 669.914062 628.601562 669.914062 628.601562 C 669.914062 627.765625 669.664062 627.515625 669.367188 627.515625 C 669.074219 627.515625 668.824219 627.515625 668.824219 627.515625 C 651.140625 617.40625 642.328125 612.277344 637.847656 609.582031 C 633.371094 606.886719 629.695312 604.691406 629.695312 604.691406 C 629.695312 603.851562 629.445312 603.601562 629.152344 603.601562 C 628.859375 603.601562 628.609375 603.601562 628.609375 603.601562 C 627.773438 602.765625 627.035156 602.515625 626.4375 602.515625 C 625.839844 602.515625 625.347656 602.515625 625.347656 602.515625 C 618.609375 598.296875 613.957031 595.363281 610.675781 593.277344 C 607.394531 591.191406 603.230469 587.515625 601.4375 585.125 C 599.644531 582.734375 598.175781 580.777344 598.175781 580.777344 C 597.328125 577.40625 596.851562 576.429688 596.546875 576.429688 C 596.242188 576.429688 596.003906 576.429688 596.003906 576.429688 C 594.261719 564.234375 594.046875 544.605469 594.371094 519.367188 C 594.675781 496.355469 594.914062 477.519531 594.914062 477.519531 C 594.914062 477.519531 595.15625 477.769531 595.457031 478.0625 C 595.761719 478.359375 596.742188 478.117188 597.632812 477.519531 C 598.828125 476.714844 600.273438 477.152344 603.066406 479.152344 C 605.164062 480.652344 610.296875 483.824219 614.480469 486.214844 C 618.664062 488.605469 631.621094 496.183594 643.28125 503.0625 C 654.945312 509.941406 675.238281 521.671875 688.390625 529.148438 C 701.542969 536.625 716.214844 544.929688 720.996094 547.625 C 725.78125 550.320312 735.324219 555.941406 742.191406 560.125 C 749.0625 564.3125 761.539062 571.648438 769.910156 576.429688 C 778.277344 581.210938 793.441406 590.015625 803.601562 595.996094 C 813.765625 601.972656 828.1875 610.289062 835.667969 614.472656 C 843.144531 618.65625 850.960938 623.296875 853.058594 624.796875 C 855.15625 626.296875 857.601562 627.515625 858.492188 627.515625 C 859.382812 627.515625 862.316406 628.730469 865.011719 630.230469 C 867.707031 631.730469 872.101562 633.4375 879.6875 635.125 Z M 879.6875 635.125 " fill-opacity="0.9961" fill-rule="evenodd"/><path fill="#961816" d="M 596.003906 576.429688 C 596.003906 576.429688 596.242188 576.429688 596.546875 576.429688 C 596.851562 576.429688 597.328125 577.40625 598.175781 580.777344 C 593.046875 579.753906 592.925781 579.503906 594.371094 578.058594 C 595.261719 577.15625 596.003906 576.429688 596.003906 576.429688 Z M 596.003906 576.429688 " fill-opacity="0.0667" fill-rule="evenodd"/><path fill="#ff0000" d="M 603.066406 589.472656 C 603.359375 589.472656 603.609375 589.722656 603.609375 590.015625 C 603.609375 590.308594 603.359375 590.308594 603.066406 590.015625 C 602.773438 589.722656 602.773438 589.472656 603.066406 589.472656 Z M 603.066406 589.472656 " fill-opacity="0.0039" fill-rule="evenodd"/><path fill="#ff5555" d="M 625.347656 602.515625 C 625.347656 603.351562 625.097656 603.601562 624.804688 603.601562 C 624.511719 603.601562 624.511719 603.351562 624.804688 603.058594 C 625.097656 602.765625 625.347656 602.515625 625.347656 602.515625 Z M 625.347656 602.515625 " fill-opacity="0.0118" fill-rule="evenodd"/><path fill="#ff0000" d="M 628.609375 603.601562 C 628.609375 603.601562 628.859375 603.601562 629.152344 603.601562 C 629.445312 603.601562 629.695312 603.851562 629.695312 604.691406 C 628.859375 605.527344 628.359375 605.777344 628.066406 605.777344 C 627.773438 605.777344 627.773438 605.289062 628.066406 604.691406 C 628.359375 604.089844 628.609375 603.601562 628.609375 603.601562 Z M 628.609375 603.601562 " fill-opacity="0.0039" fill-rule="evenodd"/><path fill="#ff0000" d="M 649.804688 618.820312 C 650.097656 618.820312 650.347656 619.070312 650.347656 619.363281 C 650.347656 619.65625 650.097656 619.65625 649.804688 619.363281 C 649.511719 619.070312 649.511719 618.820312 649.804688 618.820312 Z M 649.804688 618.820312 " fill-opacity="0.0039" fill-rule="evenodd"/><path fill="#ff0000" d="M 1105.222656 619.90625 C 1105.515625 619.90625 1105.765625 620.15625 1105.765625 620.449219 C 1105.765625 620.742188 1105.515625 620.742188 1105.222656 620.449219 C 1104.929688 620.15625 1104.929688 619.90625 1105.222656 619.90625 Z M 1105.222656 619.90625 " fill-opacity="0.0039" fill-rule="evenodd"/><path fill="#ff0000" d="M 663.390625 626.429688 C 663.988281 626.429688 664.476562 626.679688 664.476562 626.972656 C 664.476562 627.265625 663.988281 627.265625 663.390625 626.972656 C 662.664062 626.613281 662.664062 626.429688 663.390625 626.429688 Z M 663.390625 626.429688 " fill-opacity="0.0039" fill-rule="evenodd"/><path fill="#ff5500" d="M 668.824219 627.515625 C 668.824219 627.515625 669.074219 627.515625 669.367188 627.515625 C 669.664062 627.515625 669.914062 627.765625 669.914062 628.601562 C 669.074219 629.4375 668.335938 629.6875 667.738281 629.6875 C 667.011719 629.6875 667.011719 629.328125 667.738281 628.601562 C 668.335938 628.003906 668.824219 627.515625 668.824219 627.515625 Z M 668.824219 627.515625 " fill-opacity="0.0118" fill-rule="evenodd"/><path fill="#ff0000" d="M 1020.984375 667.730469 C 1021.824219 669.414062 1021.582031 670.152344 1020.984375 670.449219 C 1020.386719 670.742188 1019.898438 670.503906 1019.898438 669.90625 C 1019.898438 669.304688 1019.898438 668.816406 1019.898438 668.816406 C 1019.898438 668.816406 1019.898438 668.566406 1019.898438 668.273438 C 1019.898438 667.980469 1020.148438 667.730469 1020.984375 667.730469 Z M 1020.984375 667.730469 " fill-opacity="0.0039" fill-rule="evenodd"/><path fill="#ff2a00" d="M 751.429688 676.425781 C 751.429688 676.425781 751.679688 676.425781 751.972656 676.425781 C 752.269531 676.425781 752.519531 676.675781 752.519531 677.511719 C 751.679688 679.199219 751.179688 679.6875 750.886719 679.6875 C 750.59375 679.6875 750.59375 678.957031 750.886719 678.054688 C 751.179688 677.152344 751.429688 676.425781 751.429688 676.425781 Z M 751.429688 676.425781 " fill-opacity="0.0078" fill-rule="evenodd"/><path fill="#aa0000" d="M 777.515625 691.644531 C 777.515625 691.644531 777.765625 691.644531 778.058594 691.644531 C 778.355469 691.644531 778.605469 691.890625 778.605469 692.730469 C 778.605469 694.414062 778.113281 694.902344 777.515625 694.902344 C 776.917969 694.902344 776.679688 694.175781 776.972656 693.273438 C 777.265625 692.371094 777.515625 691.644531 777.515625 691.644531 Z M 777.515625 691.644531 " fill-opacity="0.0039" fill-rule="evenodd"/><path fill="#ff0000" d="M 780.234375 697.078125 C 780.527344 697.078125 780.777344 697.328125 780.777344 697.621094 C 780.777344 697.914062 780.527344 697.914062 780.234375 697.621094 C 779.941406 697.328125 779.941406 697.078125 780.234375 697.078125 Z M 780.234375 697.078125 " fill-opacity="0.0039" fill-rule="evenodd"/><path fill="#ff0000" d="M 794.363281 703.597656 C 794.65625 703.597656 794.90625 703.847656 794.90625 704.140625 C 794.90625 704.4375 794.65625 704.4375 794.363281 704.140625 C 794.070312 703.847656 794.070312 703.597656 794.363281 703.597656 Z M 794.363281 703.597656 " fill-opacity="0.0039" fill-rule="evenodd"/><path fill="#ff0000" d="M 840.015625 730.773438 C 840.308594 730.773438 840.558594 731.019531 840.558594 731.316406 C 840.558594 731.609375 840.308594 731.609375 840.015625 731.316406 C 839.722656 731.019531 839.722656 730.773438 840.015625 730.773438 Z M 840.015625 730.773438 " fill-opacity="0.0039" fill-rule="evenodd"/><path fill="#aa0000" d="M 919.359375 732.945312 C 919.652344 732.945312 919.902344 733.195312 919.902344 733.488281 C 919.902344 733.78125 919.652344 733.78125 919.359375 733.488281 C 919.066406 733.195312 919.066406 732.945312 919.359375 732.945312 Z M 919.359375 732.945312 " fill-opacity="0.0118" fill-rule="evenodd"/></svg>