<svg xmlns="http://www.w3.org/2000/svg" xmlns:xlink="http://www.w3.org/1999/xlink" width="1024" zoomAndPan="magnify" viewBox="0 0 768 767.999994" height="1024" preserveAspectRatio="xMidYMid meet" version="1.0"><path fill="#000000" d="M 627.886719 45.804688 C 604.816406 48.539062 592.59375 50.613281 577.035156 54.433594 C 505.855469 71.914062 431.226562 115.75 363.464844 179.882812 L 347.363281 195.121094 L 298.390625 189.167969 C 254.289062 183.808594 248.398438 183.429688 239.171875 185.332031 C 218.472656 189.609375 216.925781 190.910156 133.820312 273.773438 C 84.773438 322.675781 56.496094 352.058594 57.546875 353.027344 C 58.460938 353.875 98.5 367.628906 146.519531 383.597656 L 233.824219 412.628906 L 294.453125 473.277344 L 355.082031 533.921875 L 384.910156 623.523438 L 414.734375 713.128906 L 493.246094 634.488281 C 565.898438 561.71875 572.160156 554.988281 577.144531 544.316406 C 584.855469 527.792969 584.960938 519.359375 578.117188 466.097656 L 572.246094 420.414062 L 590.472656 400.738281 C 672.992188 311.660156 717.414062 219.410156 722.125 127.339844 C 723.441406 101.585938 719.363281 63.070312 714.488281 55.214844 C 711.636719 50.628906 687.542969 46.4375 660.089844 45.753906 C 645.640625 45.394531 631.148438 45.417969 627.886719 45.804688 M 633.496094 109.472656 C 559.207031 114.585938 472.234375 161.289062 397.351562 236.289062 C 371.808594 261.867188 355.105469 282.414062 335.460938 312.414062 C 322.46875 332.25 295.664062 378.621094 295.664062 381.253906 C 295.664062 382.207031 315.816406 403.125 340.449219 427.742188 L 385.226562 472.496094 L 409.476562 459.085938 C 449.210938 437.109375 485.339844 412.324219 513.785156 387.542969 C 526.382812 376.5625 560.871094 338.964844 576.296875 319.394531 C 614.761719 270.59375 644.210938 211.699219 654.148438 163.703125 C 656.902344 150.402344 660.789062 111.042969 659.480469 109.734375 C 658.078125 108.332031 651.09375 108.261719 633.496094 109.472656 M 474.90625 216.039062 C 456.839844 220.601562 441.277344 233.59375 432.492188 251.453125 C 427.558594 261.472656 427.027344 264.042969 427.027344 277.875 C 427.027344 291.707031 427.558594 294.273438 432.492188 304.289062 C 439.488281 318.507812 449.601562 328.621094 463.472656 335.277344 C 473.289062 339.992188 476.152344 340.566406 489.777344 340.574219 C 503.605469 340.582031 506.140625 340.058594 516.230469 335.089844 C 529.695312 328.460938 541.601562 316.320312 547.878906 302.816406 C 553.917969 289.828125 554.140625 269.242188 548.402344 254.566406 C 543.207031 241.285156 530.421875 227.632812 516.976562 221.015625 C 505.207031 215.222656 486.769531 213.042969 474.90625 216.039062 M 210.980469 286.277344 C 190.054688 307.222656 173.28125 324.65625 173.703125 325.03125 C 174.128906 325.402344 189.480469 330.691406 207.820312 336.785156 L 241.167969 347.863281 L 254.855469 323.347656 C 262.386719 309.867188 275.066406 288.878906 283.03125 276.707031 C 290.996094 264.535156 297.160156 254.222656 296.726562 253.789062 C 295.664062 252.726562 262.4375 248.328125 254.972656 248.261719 C 249.457031 248.210938 246.273438 250.960938 210.980469 286.277344 M 498.21875 479.800781 C 481.882812 490.972656 454.410156 507.578125 434.394531 518.371094 L 419.726562 526.285156 L 430.976562 560.136719 C 437.167969 578.753906 442.632812 593.984375 443.117188 593.984375 C 443.605469 593.984375 461.097656 576.882812 481.984375 555.980469 L 519.964844 517.96875 L 517.867188 497.925781 C 515.574219 475.992188 514.519531 470.179688 512.867188 470.386719 C 512.269531 470.464844 505.675781 474.699219 498.21875 479.800781 M 157.707031 493.171875 C 145.773438 496.445312 129.855469 504.660156 121.382812 511.914062 C 97.488281 532.367188 77.199219 574.628906 61.226562 637.207031 C 51.449219 675.503906 43.015625 722.804688 45.960938 722.804688 C 49.75 722.804688 98.402344 713.761719 115.089844 709.949219 C 182.234375 694.628906 232.847656 672.019531 253.921875 647.925781 C 262.808594 637.769531 271.015625 622.339844 274.503906 609.226562 C 277.761719 596.992188 277.6875 574.171875 274.359375 561.3125 C 265.914062 528.738281 238.925781 501.605469 206.589844 493.179688 C 194.496094 490.03125 169.160156 490.027344 157.707031 493.171875 M 169.320312 556.492188 C 160.117188 560.671875 154.148438 568.136719 145.429688 586.359375 C 137.898438 602.109375 125.050781 639.203125 126.597656 640.746094 C 128.105469 642.257812 168.753906 628.285156 183.253906 621.269531 C 210.03125 608.316406 219.722656 591.441406 211.09375 572.796875 C 203.121094 555.582031 186.019531 548.90625 169.320312 556.492188 " fill-opacity="1" fill-rule="evenodd"/></svg>